<svg id="Слой_1" data-name="Слой 1" xmlns="http://www.w3.org/2000/svg" viewBox="0 0 244 315"><defs><style>.cls-1{fill:#fff;}.cls-2{fill:none;stroke:#fff;stroke-miterlimit:10;stroke-width:18.89px;}</style></defs><title>Монтажная область 2</title><path class="cls-1" d="M122,0a81,81,0,1,0,81,81A81,81,0,0,0,122,0Zm.5,138A57.5,57.5,0,1,1,180,80.5,57.5,57.5,0,0,1,122.5,138Z"/><line class="cls-2" x1="80" y1="138" x2="80" y2="184"/><line class="cls-2" x1="170" y1="138" x2="170" y2="184"/><path class="cls-1" d="M159.3,173H84.7A84.94,84.94,0,0,0,0,257.7v57.56H244V257.7A84.94,84.94,0,0,0,159.3,173ZM18,315.26V262.32a72.42,72.42,0,0,1,72.2-72.21h63.6A72.42,72.42,0,0,1,226,262.32v52.94Z"/></svg>