<svg id="Слой_1" data-name="Слой 1" xmlns="http://www.w3.org/2000/svg" viewBox="0 0 1014 174"><defs><style>.cls-1{fill:#fbb03b;}</style></defs><title>Монтажная область 1</title><polygon class="cls-1" points="91.5 0.21 119.8 57.55 183.08 66.74 137.29 111.38 148.1 174.4 91.5 144.65 34.9 174.4 45.71 111.38 -0.08 66.74 63.2 57.55 91.5 0.21"/><polygon class="cls-1" points="298.5 0.21 326.8 57.55 390.08 66.74 344.29 111.38 355.1 174.4 298.5 144.65 241.9 174.4 252.71 111.38 206.92 66.74 270.2 57.55 298.5 0.21"/><polygon class="cls-1" points="506.5 0.21 534.8 57.55 598.08 66.74 552.29 111.38 563.1 174.4 506.5 144.65 449.9 174.4 460.71 111.38 414.92 66.74 478.2 57.55 506.5 0.21"/><polygon class="cls-1" points="714.5 0.21 742.8 57.55 806.08 66.74 760.29 111.38 771.1 174.4 714.5 144.65 657.9 174.4 668.71 111.38 622.92 66.74 686.2 57.55 714.5 0.21"/><polygon class="cls-1" points="922.5 0.21 950.8 57.55 1014.08 66.74 968.29 111.38 979.1 174.4 922.5 144.65 865.9 174.4 876.71 111.38 830.92 66.74 894.2 57.55 922.5 0.21"/></svg>